<svg xmlns="http://www.w3.org/2000/svg" xmlns:xlink="http://www.w3.org/1999/xlink" viewBox="0 0 1233.8 1016.95"><defs><style>.cls-1{fill:url(#linear-gradient);}</style><linearGradient id="linear-gradient" y1="508.48" x2="1233.8" y2="508.48" gradientUnits="userSpaceOnUse"><stop offset="0.28" stop-color="#ed1e79"/><stop offset="0.45" stop-color="#ed1d5b"/><stop offset="0.66" stop-color="#ed1d3d"/><stop offset="0.84" stop-color="#ed1c2b"/><stop offset="0.97" stop-color="#ed1c24"/></linearGradient></defs><g id="Layer_2" data-name="Layer 2"><g id="Layer_1-2" data-name="Layer 1"><path class="cls-1" d="M175.47,146a667.39,667.39,0,0,0-96.18,69c-22.22,19.21-43.54,40.08-58.56,65.31-62,104.12,27.71,224,103,292.21,307.2,278.4,131.2,620.8,816,339.2,109.7-45.11,318.11-133.91,291.84-287.13-16.34-95.26-238.65-308.22-198.65-345.17,11.36-10.5,25.59-18,35-30.26,15.26-19.83,14.47-48.45,4.52-71.41C1031,82.12,905.21,37,811.72,16.06,709.38-6.81,599.37-5.67,498.09,22.14,384.89,53.21,274.5,87.17,175.47,146Z"/></g></g></svg>